<?xml version="1.0" encoding="UTF-8" standalone="no"?>
<!DOCTYPE svg PUBLIC "-//W3C//DTD SVG 1.1//EN"
 "http://www.w3.org/Graphics/SVG/1.1/DTD/svg11.dtd">
<!-- Generated by graphviz version 2.40.1 (20161225.0304)
 -->
<!-- Title: dependencies Pages: 1 -->
<svg width="770pt" height="284pt"
 viewBox="0.00 0.00 770.00 284.00" xmlns="http://www.w3.org/2000/svg" xmlns:xlink="http://www.w3.org/1999/xlink">
<g id="graph0" class="graph" transform="scale(1 1) rotate(0) translate(4 280)">
<title>dependencies</title>
<polygon fill="#ffffff" stroke="transparent" points="-4,4 -4,-280 766,-280 766,4 -4,4"/>
<text text-anchor="start" x="360.0091" y="-42.4" font-family="sans-serif" font-weight="bold" font-size="14.00" fill="#000000">Legend</text>
<polygon fill="#ffffb3" stroke="transparent" points="147,-10 147,-30 167,-30 167,-10 147,-10"/>
<text text-anchor="start" x="170.629" y="-15.4" font-family="sans-serif" font-size="14.00" fill="#000000"> &#160;Declarations</text>
<polygon fill="#8dd3c7" stroke="transparent" points="260,-10 260,-30 280,-30 280,-10 260,-10"/>
<text text-anchor="start" x="283.7251" y="-15.4" font-family="sans-serif" font-size="14.00" fill="#000000"> &#160;Module</text>
<polygon fill="#80b1d3" stroke="transparent" points="346,-10 346,-30 366,-30 366,-10 346,-10"/>
<text text-anchor="start" x="369.7812" y="-15.4" font-family="sans-serif" font-size="14.00" fill="#000000"> &#160;Bootstrap</text>
<polygon fill="#fdb462" stroke="transparent" points="443,-10 443,-30 463,-30 463,-10 443,-10"/>
<text text-anchor="start" x="466.6732" y="-15.4" font-family="sans-serif" font-size="14.00" fill="#000000"> &#160;Providers</text>
<polygon fill="#fb8072" stroke="transparent" points="539,-10 539,-30 559,-30 559,-10 539,-10"/>
<text text-anchor="start" x="562.7258" y="-15.4" font-family="sans-serif" font-size="14.00" fill="#000000"> &#160;Exports</text>
<g id="clust1" class="cluster">
<title>cluster_ItemsModule</title>
<polygon fill="none" stroke="#000000" stroke-dasharray="1,5" points="8,-70 8,-268 754,-268 754,-70 8,-70"/>
</g>
<g id="clust2" class="cluster">
<title>cluster_ItemsModule_declarations</title>
<polygon fill="none" stroke="#000000" points="310,-78 310,-130 746,-130 746,-78 310,-78"/>
</g>
<g id="clust6" class="cluster">
<title>cluster_ItemsModule_imports</title>
<polygon fill="none" stroke="#000000" points="16,-78 16,-130 302,-130 302,-78 16,-78"/>
</g>
<g id="clust7" class="cluster">
<title>cluster_ItemsModule_exports</title>
<polygon fill="none" stroke="#000000" points="234,-208 234,-260 530,-260 530,-208 234,-208"/>
</g>
<!-- AbstractComponent -->
<g id="node1" class="node">
<title>AbstractComponent</title>
<polygon fill="#ffffb3" stroke="#000000" points="738.2548,-122 609.7452,-122 609.7452,-86 738.2548,-86 738.2548,-122"/>
<text text-anchor="middle" x="674" y="-99.8" font-family="Times,serif" font-size="14.00" fill="#000000">AbstractComponent</text>
</g>
<!-- ItemsModule -->
<g id="node4" class="node">
<title>ItemsModule</title>
<polygon fill="#8dd3c7" stroke="#000000" points="439.1515,-187 436.1515,-191 415.1515,-191 412.1515,-187 348.8485,-187 348.8485,-151 439.1515,-151 439.1515,-187"/>
<text text-anchor="middle" x="394" y="-164.8" font-family="Times,serif" font-size="14.00" fill="#000000">ItemsModule</text>
</g>
<!-- AbstractComponent&#45;&gt;ItemsModule -->
<g id="edge1" class="edge">
<title>AbstractComponent&#45;&gt;ItemsModule</title>
<path fill="none" stroke="#000000" d="M674,-122.2843C674,-143.3211 674,-175 674,-175 674,-175 449.298,-175 449.298,-175"/>
<polygon fill="#000000" stroke="#000000" points="449.2981,-171.5001 439.298,-175 449.298,-178.5001 449.2981,-171.5001"/>
</g>
<!-- ListComponent -->
<g id="node2" class="node">
<title>ListComponent</title>
<polygon fill="#ffffb3" stroke="#000000" points="591.6109,-122 488.3891,-122 488.3891,-86 591.6109,-86 591.6109,-122"/>
<text text-anchor="middle" x="540" y="-99.8" font-family="Times,serif" font-size="14.00" fill="#000000">ListComponent</text>
</g>
<!-- ListComponent&#45;&gt;ItemsModule -->
<g id="edge2" class="edge">
<title>ListComponent&#45;&gt;ItemsModule</title>
<path fill="none" stroke="#000000" d="M505.375,-122.0225C505.375,-139.3734 505.375,-163 505.375,-163 505.375,-163 449.3005,-163 449.3005,-163"/>
<polygon fill="#000000" stroke="#000000" points="449.3005,-159.5001 439.3005,-163 449.3004,-166.5001 449.3005,-159.5001"/>
</g>
<!-- ListDelivredComponent -->
<g id="node3" class="node">
<title>ListDelivredComponent</title>
<polygon fill="#ffffb3" stroke="#000000" points="470.0884,-122 317.9116,-122 317.9116,-86 470.0884,-86 470.0884,-122"/>
<text text-anchor="middle" x="394" y="-99.8" font-family="Times,serif" font-size="14.00" fill="#000000">ListDelivredComponent</text>
</g>
<!-- ListDelivredComponent&#45;&gt;ItemsModule -->
<g id="edge3" class="edge">
<title>ListDelivredComponent&#45;&gt;ItemsModule</title>
<path fill="none" stroke="#000000" d="M394,-122.1061C394,-122.1061 394,-140.991 394,-140.991"/>
<polygon fill="#000000" stroke="#000000" points="390.5001,-140.9909 394,-150.991 397.5001,-140.991 390.5001,-140.9909"/>
</g>
<!-- ListComponent  -->
<g id="node7" class="node">
<title>ListComponent </title>
<polygon fill="#fb8072" stroke="#000000" points="522.1115,-252 415.8885,-252 415.8885,-216 522.1115,-216 522.1115,-252"/>
<text text-anchor="middle" x="469" y="-229.8" font-family="Times,serif" font-size="14.00" fill="#000000">ListComponent </text>
</g>
<!-- ItemsModule&#45;&gt;ListComponent  -->
<g id="edge6" class="edge">
<title>ItemsModule&#45;&gt;ListComponent </title>
<path fill="none" stroke="#000000" stroke-dasharray="5,2" d="M427.51,-187.1061C427.51,-187.1061 427.51,-205.991 427.51,-205.991"/>
<polygon fill="#000000" stroke="#000000" points="424.0101,-205.9909 427.51,-215.991 431.0101,-205.991 424.0101,-205.9909"/>
</g>
<!-- ListDelivredComponent  -->
<g id="node8" class="node">
<title>ListDelivredComponent </title>
<polygon fill="#fb8072" stroke="#000000" points="397.5889,-252 242.4111,-252 242.4111,-216 397.5889,-216 397.5889,-252"/>
<text text-anchor="middle" x="320" y="-229.8" font-family="Times,serif" font-size="14.00" fill="#000000">ListDelivredComponent </text>
</g>
<!-- ItemsModule&#45;&gt;ListDelivredComponent  -->
<g id="edge7" class="edge">
<title>ItemsModule&#45;&gt;ListDelivredComponent </title>
<path fill="none" stroke="#000000" stroke-dasharray="5,2" d="M373.2344,-187.1061C373.2344,-187.1061 373.2344,-205.991 373.2344,-205.991"/>
<polygon fill="#000000" stroke="#000000" points="369.7345,-205.9909 373.2344,-215.991 376.7345,-205.991 369.7345,-205.9909"/>
</g>
<!-- ItemsRoutingModule -->
<g id="node5" class="node">
<title>ItemsRoutingModule</title>
<polygon fill="#8dd3c7" stroke="#000000" points="293.7688,-122 290.7688,-126 269.7688,-126 266.7688,-122 158.2312,-122 158.2312,-86 293.7688,-86 293.7688,-122"/>
<text text-anchor="middle" x="226" y="-99.8" font-family="Times,serif" font-size="14.00" fill="#000000">ItemsRoutingModule</text>
</g>
<!-- ItemsRoutingModule&#45;&gt;ItemsModule -->
<g id="edge4" class="edge">
<title>ItemsRoutingModule&#45;&gt;ItemsModule</title>
<path fill="none" stroke="#000000" d="M268.0451,-122.0225C268.0451,-139.3734 268.0451,-163 268.0451,-163 268.0451,-163 338.5274,-163 338.5274,-163"/>
<polygon fill="#000000" stroke="#000000" points="338.5274,-166.5001 348.5274,-163 338.5273,-159.5001 338.5274,-166.5001"/>
</g>
<!-- SHAREDModule -->
<g id="node6" class="node">
<title>SHAREDModule</title>
<polygon fill="#8dd3c7" stroke="#000000" points="139.5423,-122 136.5423,-126 115.5423,-126 112.5423,-122 24.4577,-122 24.4577,-86 139.5423,-86 139.5423,-122"/>
<text text-anchor="middle" x="82" y="-99.8" font-family="Times,serif" font-size="14.00" fill="#000000">SHAREDModule</text>
</g>
<!-- SHAREDModule&#45;&gt;ItemsModule -->
<g id="edge5" class="edge">
<title>SHAREDModule&#45;&gt;ItemsModule</title>
<path fill="none" stroke="#000000" d="M82,-122.2843C82,-143.3211 82,-175 82,-175 82,-175 338.6325,-175 338.6325,-175"/>
<polygon fill="#000000" stroke="#000000" points="338.6326,-178.5001 348.6325,-175 338.6325,-171.5001 338.6326,-178.5001"/>
</g>
</g>
</svg>
