<?xml version="1.0" encoding="UTF-8" standalone="no"?>
<!DOCTYPE svg PUBLIC "-//W3C//DTD SVG 1.1//EN"
 "http://www.w3.org/Graphics/SVG/1.1/DTD/svg11.dtd">
<!-- Generated by graphviz version 2.40.1 (20161225.0304)
 -->
<!-- Title: dependencies Pages: 1 -->
<svg width="899pt" height="284pt"
 viewBox="0.00 0.00 899.00 284.00" xmlns="http://www.w3.org/2000/svg" xmlns:xlink="http://www.w3.org/1999/xlink">
<g id="graph0" class="graph" transform="scale(1 1) rotate(0) translate(4 280)">
<title>dependencies</title>
<polygon fill="#ffffff" stroke="transparent" points="-4,4 -4,-280 895,-280 895,4 -4,4"/>
<text text-anchor="start" x="424.5091" y="-42.4" font-family="sans-serif" font-weight="bold" font-size="14.00" fill="#000000">Legend</text>
<polygon fill="#ffffb3" stroke="transparent" points="211.5,-10 211.5,-30 231.5,-30 231.5,-10 211.5,-10"/>
<text text-anchor="start" x="235.129" y="-15.4" font-family="sans-serif" font-size="14.00" fill="#000000"> &#160;Declarations</text>
<polygon fill="#8dd3c7" stroke="transparent" points="324.5,-10 324.5,-30 344.5,-30 344.5,-10 324.5,-10"/>
<text text-anchor="start" x="348.2251" y="-15.4" font-family="sans-serif" font-size="14.00" fill="#000000"> &#160;Module</text>
<polygon fill="#80b1d3" stroke="transparent" points="410.5,-10 410.5,-30 430.5,-30 430.5,-10 410.5,-10"/>
<text text-anchor="start" x="434.2812" y="-15.4" font-family="sans-serif" font-size="14.00" fill="#000000"> &#160;Bootstrap</text>
<polygon fill="#fdb462" stroke="transparent" points="507.5,-10 507.5,-30 527.5,-30 527.5,-10 507.5,-10"/>
<text text-anchor="start" x="531.1732" y="-15.4" font-family="sans-serif" font-size="14.00" fill="#000000"> &#160;Providers</text>
<polygon fill="#fb8072" stroke="transparent" points="603.5,-10 603.5,-30 623.5,-30 623.5,-10 603.5,-10"/>
<text text-anchor="start" x="627.2258" y="-15.4" font-family="sans-serif" font-size="14.00" fill="#000000"> &#160;Exports</text>
<g id="clust1" class="cluster">
<title>cluster_AppModule</title>
<polygon fill="none" stroke="#000000" stroke-dasharray="1,5" points="8,-70 8,-268 883,-268 883,-70 8,-70"/>
</g>
<g id="clust2" class="cluster">
<title>cluster_AppModule_declarations</title>
<polygon fill="none" stroke="#000000" points="753,-78 753,-130 875,-130 875,-78 753,-78"/>
</g>
<g id="clust4" class="cluster">
<title>cluster_AppModule_imports</title>
<polygon fill="none" stroke="#000000" points="16,-78 16,-130 745,-130 745,-78 16,-78"/>
</g>
<g id="clust6" class="cluster">
<title>cluster_AppModule_bootstrap</title>
<polygon fill="none" stroke="#000000" points="414,-208 414,-260 538,-260 538,-208 414,-208"/>
</g>
<!-- AppComponent -->
<g id="node1" class="node">
<title>AppComponent</title>
<polygon fill="#ffffb3" stroke="#000000" points="866.9399,-122 761.0601,-122 761.0601,-86 866.9399,-86 866.9399,-122"/>
<text text-anchor="middle" x="814" y="-99.8" font-family="Times,serif" font-size="14.00" fill="#000000">AppComponent</text>
</g>
<!-- AppModule -->
<g id="node2" class="node">
<title>AppModule</title>
<polygon fill="#8dd3c7" stroke="#000000" points="517.6571,-187 514.6571,-191 493.6571,-191 490.6571,-187 434.3429,-187 434.3429,-151 517.6571,-151 517.6571,-187"/>
<text text-anchor="middle" x="476" y="-164.8" font-family="Times,serif" font-size="14.00" fill="#000000">AppModule</text>
</g>
<!-- AppComponent&#45;&gt;AppModule -->
<g id="edge1" class="edge">
<title>AppComponent&#45;&gt;AppModule</title>
<path fill="none" stroke="#000000" d="M814,-122.2921C814,-144.2057 814,-178 814,-178 814,-178 527.7844,-178 527.7844,-178"/>
<polygon fill="#000000" stroke="#000000" points="527.7845,-174.5001 517.7844,-178 527.7844,-181.5001 527.7845,-174.5001"/>
</g>
<!-- AppComponent  -->
<g id="node9" class="node">
<title>AppComponent </title>
<polygon fill="#80b1d3" stroke="#000000" points="530.439,-252 421.561,-252 421.561,-216 530.439,-216 530.439,-252"/>
<text text-anchor="middle" x="476" y="-229.8" font-family="Times,serif" font-size="14.00" fill="#000000">AppComponent </text>
</g>
<!-- AppModule&#45;&gt;AppComponent  -->
<g id="edge8" class="edge">
<title>AppModule&#45;&gt;AppComponent </title>
<path fill="none" stroke="#000000" stroke-dasharray="1,5" d="M476,-187.1061C476,-187.1061 476,-205.991 476,-205.991"/>
<polygon fill="#000000" stroke="#000000" points="472.5001,-205.9909 476,-215.991 479.5001,-205.991 472.5001,-205.9909"/>
</g>
<!-- CoreModule -->
<g id="node3" class="node">
<title>CoreModule</title>
<polygon fill="#8dd3c7" stroke="#000000" points="737.2619,-122 734.2619,-126 713.2619,-126 710.2619,-122 650.7381,-122 650.7381,-86 737.2619,-86 737.2619,-122"/>
<text text-anchor="middle" x="694" y="-99.8" font-family="Times,serif" font-size="14.00" fill="#000000">CoreModule</text>
</g>
<!-- CoreModule&#45;&gt;AppModule -->
<g id="edge2" class="edge">
<title>CoreModule&#45;&gt;AppModule</title>
<path fill="none" stroke="#000000" d="M694,-122.1061C694,-141.3391 694,-169 694,-169 694,-169 527.7747,-169 527.7747,-169"/>
<polygon fill="#000000" stroke="#000000" points="527.7747,-165.5001 517.7747,-169 527.7746,-172.5001 527.7747,-165.5001"/>
</g>
<!-- HomeModule -->
<g id="node4" class="node">
<title>HomeModule</title>
<polygon fill="#8dd3c7" stroke="#000000" points="632.7619,-122 629.7619,-126 608.7619,-126 605.7619,-122 539.2381,-122 539.2381,-86 632.7619,-86 632.7619,-122"/>
<text text-anchor="middle" x="586" y="-99.8" font-family="Times,serif" font-size="14.00" fill="#000000">HomeModule</text>
</g>
<!-- HomeModule&#45;&gt;AppModule -->
<g id="edge3" class="edge">
<title>HomeModule&#45;&gt;AppModule</title>
<path fill="none" stroke="#000000" d="M586,-122.027C586,-138.3976 586,-160 586,-160 586,-160 527.9001,-160 527.9001,-160"/>
<polygon fill="#000000" stroke="#000000" points="527.9001,-156.5001 517.9001,-160 527.9,-163.5001 527.9001,-156.5001"/>
</g>
<!-- ItemsModule -->
<g id="node5" class="node">
<title>ItemsModule</title>
<polygon fill="#8dd3c7" stroke="#000000" points="521.1515,-122 518.1515,-126 497.1515,-126 494.1515,-122 430.8485,-122 430.8485,-86 521.1515,-86 521.1515,-122"/>
<text text-anchor="middle" x="476" y="-99.8" font-family="Times,serif" font-size="14.00" fill="#000000">ItemsModule</text>
</g>
<!-- ItemsModule&#45;&gt;AppModule -->
<g id="edge4" class="edge">
<title>ItemsModule&#45;&gt;AppModule</title>
<path fill="none" stroke="#000000" d="M476,-122.1061C476,-122.1061 476,-140.991 476,-140.991"/>
<polygon fill="#000000" stroke="#000000" points="472.5001,-140.9909 476,-150.991 479.5001,-140.991 472.5001,-140.9909"/>
</g>
<!-- LoginModule -->
<g id="node6" class="node">
<title>LoginModule</title>
<polygon fill="#8dd3c7" stroke="#000000" points="412.493,-122 409.493,-126 388.493,-126 385.493,-122 319.507,-122 319.507,-86 412.493,-86 412.493,-122"/>
<text text-anchor="middle" x="366" y="-99.8" font-family="Times,serif" font-size="14.00" fill="#000000">LoginModule</text>
</g>
<!-- LoginModule&#45;&gt;AppModule -->
<g id="edge5" class="edge">
<title>LoginModule&#45;&gt;AppModule</title>
<path fill="none" stroke="#000000" d="M366,-122.027C366,-138.3976 366,-160 366,-160 366,-160 424.0999,-160 424.0999,-160"/>
<polygon fill="#000000" stroke="#000000" points="424.1,-163.5001 434.0999,-160 424.0999,-156.5001 424.1,-163.5001"/>
</g>
<!-- PageNotFoundModule -->
<g id="node7" class="node">
<title>PageNotFoundModule</title>
<polygon fill="#8dd3c7" stroke="#000000" points="301.5421,-122 298.5421,-126 277.5421,-126 274.5421,-122 158.4579,-122 158.4579,-86 301.5421,-86 301.5421,-122"/>
<text text-anchor="middle" x="230" y="-99.8" font-family="Times,serif" font-size="14.00" fill="#000000">PageNotFoundModule</text>
</g>
<!-- PageNotFoundModule&#45;&gt;AppModule -->
<g id="edge6" class="edge">
<title>PageNotFoundModule&#45;&gt;AppModule</title>
<path fill="none" stroke="#000000" d="M230,-122.1061C230,-141.3391 230,-169 230,-169 230,-169 424.2695,-169 424.2695,-169"/>
<polygon fill="#000000" stroke="#000000" points="424.2695,-172.5001 434.2695,-169 424.2694,-165.5001 424.2695,-172.5001"/>
</g>
<!-- SHAREDModule -->
<g id="node8" class="node">
<title>SHAREDModule</title>
<polygon fill="#8dd3c7" stroke="#000000" points="139.5423,-122 136.5423,-126 115.5423,-126 112.5423,-122 24.4577,-122 24.4577,-86 139.5423,-86 139.5423,-122"/>
<text text-anchor="middle" x="82" y="-99.8" font-family="Times,serif" font-size="14.00" fill="#000000">SHAREDModule</text>
</g>
<!-- SHAREDModule&#45;&gt;AppModule -->
<g id="edge7" class="edge">
<title>SHAREDModule&#45;&gt;AppModule</title>
<path fill="none" stroke="#000000" d="M82,-122.2921C82,-144.2057 82,-178 82,-178 82,-178 424.2081,-178 424.2081,-178"/>
<polygon fill="#000000" stroke="#000000" points="424.2081,-181.5001 434.2081,-178 424.2081,-174.5001 424.2081,-181.5001"/>
</g>
</g>
</svg>
