<?xml version="1.0" encoding="UTF-8" standalone="no"?>
<!DOCTYPE svg PUBLIC "-//W3C//DTD SVG 1.1//EN"
 "http://www.w3.org/Graphics/SVG/1.1/DTD/svg11.dtd">
<!-- Generated by graphviz version 2.40.1 (20161225.0304)
 -->
<!-- Title: dependencies Pages: 1 -->
<svg width="826pt" height="284pt"
 viewBox="0.00 0.00 826.00 284.00" xmlns="http://www.w3.org/2000/svg" xmlns:xlink="http://www.w3.org/1999/xlink">
<g id="graph0" class="graph" transform="scale(1 1) rotate(0) translate(4 280)">
<title>dependencies</title>
<polygon fill="#ffffff" stroke="transparent" points="-4,4 -4,-280 822,-280 822,4 -4,4"/>
<text text-anchor="start" x="388.0091" y="-42.4" font-family="sans-serif" font-weight="bold" font-size="14.00" fill="#000000">Legend</text>
<polygon fill="#ffffb3" stroke="transparent" points="175,-10 175,-30 195,-30 195,-10 175,-10"/>
<text text-anchor="start" x="198.629" y="-15.4" font-family="sans-serif" font-size="14.00" fill="#000000"> &#160;Declarations</text>
<polygon fill="#8dd3c7" stroke="transparent" points="288,-10 288,-30 308,-30 308,-10 288,-10"/>
<text text-anchor="start" x="311.7251" y="-15.4" font-family="sans-serif" font-size="14.00" fill="#000000"> &#160;Module</text>
<polygon fill="#80b1d3" stroke="transparent" points="374,-10 374,-30 394,-30 394,-10 374,-10"/>
<text text-anchor="start" x="397.7812" y="-15.4" font-family="sans-serif" font-size="14.00" fill="#000000"> &#160;Bootstrap</text>
<polygon fill="#fdb462" stroke="transparent" points="471,-10 471,-30 491,-30 491,-10 471,-10"/>
<text text-anchor="start" x="494.6732" y="-15.4" font-family="sans-serif" font-size="14.00" fill="#000000"> &#160;Providers</text>
<polygon fill="#fb8072" stroke="transparent" points="567,-10 567,-30 587,-30 587,-10 567,-10"/>
<text text-anchor="start" x="590.7258" y="-15.4" font-family="sans-serif" font-size="14.00" fill="#000000"> &#160;Exports</text>
<g id="clust1" class="cluster">
<title>cluster_AppModule</title>
<polygon fill="none" stroke="#000000" stroke-dasharray="1,5" points="8,-70 8,-268 810,-268 810,-70 8,-70"/>
</g>
<g id="clust2" class="cluster">
<title>cluster_AppModule_declarations</title>
<polygon fill="none" stroke="#000000" points="680,-78 680,-130 802,-130 802,-78 680,-78"/>
</g>
<g id="clust4" class="cluster">
<title>cluster_AppModule_imports</title>
<polygon fill="none" stroke="#000000" points="16,-78 16,-130 672,-130 672,-78 16,-78"/>
</g>
<g id="clust6" class="cluster">
<title>cluster_AppModule_bootstrap</title>
<polygon fill="none" stroke="#000000" points="358,-208 358,-260 482,-260 482,-208 358,-208"/>
</g>
<!-- AppComponent -->
<g id="node1" class="node">
<title>AppComponent</title>
<polygon fill="#ffffb3" stroke="#000000" points="793.9399,-122 688.0601,-122 688.0601,-86 793.9399,-86 793.9399,-122"/>
<text text-anchor="middle" x="741" y="-99.8" font-family="Times,serif" font-size="14.00" fill="#000000">AppComponent</text>
</g>
<!-- AppModule -->
<g id="node2" class="node">
<title>AppModule</title>
<polygon fill="#8dd3c7" stroke="#000000" points="461.6571,-187 458.6571,-191 437.6571,-191 434.6571,-187 378.3429,-187 378.3429,-151 461.6571,-151 461.6571,-187"/>
<text text-anchor="middle" x="420" y="-164.8" font-family="Times,serif" font-size="14.00" fill="#000000">AppModule</text>
</g>
<!-- AppComponent&#45;&gt;AppModule -->
<g id="edge1" class="edge">
<title>AppComponent&#45;&gt;AppModule</title>
<path fill="none" stroke="#000000" d="M741,-122.2843C741,-143.3211 741,-175 741,-175 741,-175 471.9651,-175 471.9651,-175"/>
<polygon fill="#000000" stroke="#000000" points="471.9652,-171.5001 461.9651,-175 471.9651,-178.5001 471.9652,-171.5001"/>
</g>
<!-- AppComponent  -->
<g id="node8" class="node">
<title>AppComponent </title>
<polygon fill="#80b1d3" stroke="#000000" points="474.439,-252 365.561,-252 365.561,-216 474.439,-216 474.439,-252"/>
<text text-anchor="middle" x="420" y="-229.8" font-family="Times,serif" font-size="14.00" fill="#000000">AppComponent </text>
</g>
<!-- AppModule&#45;&gt;AppComponent  -->
<g id="edge7" class="edge">
<title>AppModule&#45;&gt;AppComponent </title>
<path fill="none" stroke="#000000" stroke-dasharray="1,5" d="M420,-187.1061C420,-187.1061 420,-205.991 420,-205.991"/>
<polygon fill="#000000" stroke="#000000" points="416.5001,-205.9909 420,-215.991 423.5001,-205.991 416.5001,-205.9909"/>
</g>
<!-- AppRoutingModule -->
<g id="node3" class="node">
<title>AppRoutingModule</title>
<polygon fill="#8dd3c7" stroke="#000000" points="664.2744,-122 661.2744,-126 640.2744,-126 637.2744,-122 535.7256,-122 535.7256,-86 664.2744,-86 664.2744,-122"/>
<text text-anchor="middle" x="600" y="-99.8" font-family="Times,serif" font-size="14.00" fill="#000000">AppRoutingModule</text>
</g>
<!-- AppRoutingModule&#45;&gt;AppModule -->
<g id="edge2" class="edge">
<title>AppRoutingModule&#45;&gt;AppModule</title>
<path fill="none" stroke="#000000" d="M600,-122.0225C600,-139.3734 600,-163 600,-163 600,-163 471.748,-163 471.748,-163"/>
<polygon fill="#000000" stroke="#000000" points="471.7481,-159.5001 461.748,-163 471.748,-166.5001 471.7481,-159.5001"/>
</g>
<!-- CoreModule -->
<g id="node4" class="node">
<title>CoreModule</title>
<polygon fill="#8dd3c7" stroke="#000000" points="517.2619,-122 514.2619,-126 493.2619,-126 490.2619,-122 430.7381,-122 430.7381,-86 517.2619,-86 517.2619,-122"/>
<text text-anchor="middle" x="474" y="-99.8" font-family="Times,serif" font-size="14.00" fill="#000000">CoreModule</text>
</g>
<!-- CoreModule&#45;&gt;AppModule -->
<g id="edge3" class="edge">
<title>CoreModule&#45;&gt;AppModule</title>
<path fill="none" stroke="#000000" d="M446.2237,-122.1061C446.2237,-122.1061 446.2237,-140.991 446.2237,-140.991"/>
<polygon fill="#000000" stroke="#000000" points="442.7238,-140.9909 446.2237,-150.991 449.7238,-140.991 442.7238,-140.9909"/>
</g>
<!-- LoginModule -->
<g id="node5" class="node">
<title>LoginModule</title>
<polygon fill="#8dd3c7" stroke="#000000" points="412.493,-122 409.493,-126 388.493,-126 385.493,-122 319.507,-122 319.507,-86 412.493,-86 412.493,-122"/>
<text text-anchor="middle" x="366" y="-99.8" font-family="Times,serif" font-size="14.00" fill="#000000">LoginModule</text>
</g>
<!-- LoginModule&#45;&gt;AppModule -->
<g id="edge4" class="edge">
<title>LoginModule&#45;&gt;AppModule</title>
<path fill="none" stroke="#000000" d="M395.3342,-122.1061C395.3342,-122.1061 395.3342,-140.991 395.3342,-140.991"/>
<polygon fill="#000000" stroke="#000000" points="391.8342,-140.9909 395.3342,-150.991 398.8342,-140.991 391.8342,-140.9909"/>
</g>
<!-- PageNotFoundModule -->
<g id="node6" class="node">
<title>PageNotFoundModule</title>
<polygon fill="#8dd3c7" stroke="#000000" points="301.5421,-122 298.5421,-126 277.5421,-126 274.5421,-122 158.4579,-122 158.4579,-86 301.5421,-86 301.5421,-122"/>
<text text-anchor="middle" x="230" y="-99.8" font-family="Times,serif" font-size="14.00" fill="#000000">PageNotFoundModule</text>
</g>
<!-- PageNotFoundModule&#45;&gt;AppModule -->
<g id="edge5" class="edge">
<title>PageNotFoundModule&#45;&gt;AppModule</title>
<path fill="none" stroke="#000000" d="M230,-122.0225C230,-139.3734 230,-163 230,-163 230,-163 368.3037,-163 368.3037,-163"/>
<polygon fill="#000000" stroke="#000000" points="368.3037,-166.5001 378.3037,-163 368.3037,-159.5001 368.3037,-166.5001"/>
</g>
<!-- SHAREDModule -->
<g id="node7" class="node">
<title>SHAREDModule</title>
<polygon fill="#8dd3c7" stroke="#000000" points="139.5423,-122 136.5423,-126 115.5423,-126 112.5423,-122 24.4577,-122 24.4577,-86 139.5423,-86 139.5423,-122"/>
<text text-anchor="middle" x="82" y="-99.8" font-family="Times,serif" font-size="14.00" fill="#000000">SHAREDModule</text>
</g>
<!-- SHAREDModule&#45;&gt;AppModule -->
<g id="edge6" class="edge">
<title>SHAREDModule&#45;&gt;AppModule</title>
<path fill="none" stroke="#000000" d="M82,-122.2843C82,-143.3211 82,-175 82,-175 82,-175 368.2156,-175 368.2156,-175"/>
<polygon fill="#000000" stroke="#000000" points="368.2156,-178.5001 378.2156,-175 368.2155,-171.5001 368.2156,-178.5001"/>
</g>
</g>
</svg>
