<?xml version="1.0" encoding="UTF-8" standalone="no"?>
<!DOCTYPE svg PUBLIC "-//W3C//DTD SVG 1.1//EN"
 "http://www.w3.org/Graphics/SVG/1.1/DTD/svg11.dtd">
<!-- Generated by graphviz version 2.40.1 (20161225.0304)
 -->
<!-- Title: dependencies Pages: 1 -->
<svg width="504pt" height="211pt"
 viewBox="0.00 0.00 504.00 211.00" xmlns="http://www.w3.org/2000/svg" xmlns:xlink="http://www.w3.org/1999/xlink">
<g id="graph0" class="graph" transform="scale(1 1) rotate(0) translate(4 207)">
<title>dependencies</title>
<polygon fill="#ffffff" stroke="transparent" points="-4,4 -4,-207 500,-207 500,4 -4,4"/>
<text text-anchor="start" x="227.0091" y="-42.4" font-family="sans-serif" font-weight="bold" font-size="14.00" fill="#000000">Legend</text>
<polygon fill="#ffffb3" stroke="transparent" points="14,-10 14,-30 34,-30 34,-10 14,-10"/>
<text text-anchor="start" x="37.629" y="-15.4" font-family="sans-serif" font-size="14.00" fill="#000000"> &#160;Declarations</text>
<polygon fill="#8dd3c7" stroke="transparent" points="127,-10 127,-30 147,-30 147,-10 127,-10"/>
<text text-anchor="start" x="150.7251" y="-15.4" font-family="sans-serif" font-size="14.00" fill="#000000"> &#160;Module</text>
<polygon fill="#80b1d3" stroke="transparent" points="213,-10 213,-30 233,-30 233,-10 213,-10"/>
<text text-anchor="start" x="236.7812" y="-15.4" font-family="sans-serif" font-size="14.00" fill="#000000"> &#160;Bootstrap</text>
<polygon fill="#fdb462" stroke="transparent" points="310,-10 310,-30 330,-30 330,-10 310,-10"/>
<text text-anchor="start" x="333.6732" y="-15.4" font-family="sans-serif" font-size="14.00" fill="#000000"> &#160;Providers</text>
<polygon fill="#fb8072" stroke="transparent" points="406,-10 406,-30 426,-30 426,-10 406,-10"/>
<text text-anchor="start" x="429.7258" y="-15.4" font-family="sans-serif" font-size="14.00" fill="#000000"> &#160;Exports</text>
<g id="clust1" class="cluster">
<title>cluster_PageNotFoundModule</title>
<polygon fill="none" stroke="#000000" stroke-dasharray="1,5" points="73,-70 73,-195 423,-195 423,-70 73,-70"/>
</g>
<g id="clust2" class="cluster">
<title>cluster_PageNotFoundModule_declarations</title>
<polygon fill="none" stroke="#000000" points="261,-78 261,-130 415,-130 415,-78 261,-78"/>
</g>
<g id="clust4" class="cluster">
<title>cluster_PageNotFoundModule_imports</title>
<polygon fill="none" stroke="#000000" points="81,-78 81,-130 253,-130 253,-78 81,-78"/>
</g>
<!-- NotFoundComponent -->
<g id="node1" class="node">
<title>NotFoundComponent</title>
<polygon fill="#ffffb3" stroke="#000000" points="407.1122,-122 268.8878,-122 268.8878,-86 407.1122,-86 407.1122,-122"/>
<text text-anchor="middle" x="338" y="-99.8" font-family="Times,serif" font-size="14.00" fill="#000000">NotFoundComponent</text>
</g>
<!-- PageNotFoundModule -->
<g id="node2" class="node">
<title>PageNotFoundModule</title>
<polygon fill="#8dd3c7" stroke="#000000" points="323.5421,-187 320.5421,-191 299.5421,-191 296.5421,-187 180.4579,-187 180.4579,-151 323.5421,-151 323.5421,-187"/>
<text text-anchor="middle" x="252" y="-164.8" font-family="Times,serif" font-size="14.00" fill="#000000">PageNotFoundModule</text>
</g>
<!-- NotFoundComponent&#45;&gt;PageNotFoundModule -->
<g id="edge1" class="edge">
<title>NotFoundComponent&#45;&gt;PageNotFoundModule</title>
<path fill="none" stroke="#000000" d="M296.3573,-122.1061C296.3573,-122.1061 296.3573,-140.991 296.3573,-140.991"/>
<polygon fill="#000000" stroke="#000000" points="292.8574,-140.9909 296.3573,-150.991 299.8574,-140.991 292.8574,-140.9909"/>
</g>
<!-- NotFoudRouringModule -->
<g id="node3" class="node">
<title>NotFoudRouringModule</title>
<polygon fill="#8dd3c7" stroke="#000000" points="244.7176,-122 241.7176,-126 220.7176,-126 217.7176,-122 89.2824,-122 89.2824,-86 244.7176,-86 244.7176,-122"/>
<text text-anchor="middle" x="167" y="-99.8" font-family="Times,serif" font-size="14.00" fill="#000000">NotFoudRouringModule</text>
</g>
<!-- NotFoudRouringModule&#45;&gt;PageNotFoundModule -->
<g id="edge2" class="edge">
<title>NotFoudRouringModule&#45;&gt;PageNotFoundModule</title>
<path fill="none" stroke="#000000" d="M212.419,-122.1061C212.419,-122.1061 212.419,-140.991 212.419,-140.991"/>
<polygon fill="#000000" stroke="#000000" points="208.9191,-140.9909 212.419,-150.991 215.9191,-140.991 208.9191,-140.9909"/>
</g>
</g>
</svg>
